<svg width="1512" height="330" viewBox="0 0 1512 330" fill="none" xmlns="http://www.w3.org/2000/svg">
<g clip-path="url(#clip0_198_83)">
<rect width="1512" height="330" fill="url(#paint0_linear_198_83)"/>
<path fill-rule="evenodd" clip-rule="evenodd" d="M1349.25 374.957C1315.02 409.293 1270.8 457.612 1213.75 420.199C1155.31 381.871 1168.14 289.394 1124.8 227.749C1084.52 170.462 1001.13 152.939 981.836 90.3355C961.855 25.502 999.84 -21.1593 1040.45 -45.961C1079.11 -69.5757 1134.94 -53.7578 1189.36 -36.416C1248.23 -17.6586 1315.79 -5.01642 1359.37 55.6597C1402.73 116.034 1392.12 182.716 1390.21 243.233C1388.53 296.343 1379.61 344.512 1349.25 374.957Z" fill="#C4C4C4" fill-opacity="0.3"/>
<path fill-rule="evenodd" clip-rule="evenodd" d="M301.045 159.27C338.71 125.497 344.245 57.468 404.917 57.265C468.755 57.0513 538.297 109.441 599.03 158.273C662.868 209.6 736.313 268.375 750.67 335.262C764.698 400.612 719.731 447.092 665.511 467.985C623.352 484.231 562.403 439.955 508.234 428.682C465.4 419.769 428.961 429.303 385.966 409.814C306.142 373.631 190.11 348.491 164.475 272.86C139.266 198.484 255.358 200.236 301.045 159.27Z" fill="#C4C4C4" fill-opacity="0.2"/>
</g>
<defs>
<linearGradient id="paint0_linear_198_83" x1="1512" y1="302.672" x2="-2.51917" y2="54.0158" gradientUnits="userSpaceOnUse">
<stop stop-color="#007BFF"/>
<stop offset="1" stop-color="#003366"/>
</linearGradient>
<clipPath id="clip0_198_83">
<rect width="1512" height="330" fill="white"/>
</clipPath>
</defs>
</svg>
